<svg xmlns="http://www.w3.org/2000/svg" width="560" height="350" viewBox="0 0 560 350">
  <defs>
    <linearGradient id="sky" x1="0" y1="0" x2="0" y2="1">
      <stop offset="0" stop-color="#1e63c8"/><stop offset=".5" stop-color="#6ea7e8"/><stop offset=".72" stop-color="#cfe6fa"/>
    </linearGradient>
    <linearGradient id="hill" x1="0" y1="0" x2="0" y2="1">
      <stop offset="0" stop-color="#8fce5a"/><stop offset="1" stop-color="#2f7d1e"/>
    </linearGradient>
    <linearGradient id="tbar" x1="0" y1="0" x2="0" y2="1">
      <stop offset="0" stop-color="#3a81e8"/><stop offset="1" stop-color="#0a49a5"/>
    </linearGradient>
  </defs>
  <rect width="560" height="350" fill="url(#sky)"/>
  <ellipse cx="180" cy="420" rx="420" ry="180" fill="url(#hill)"/>
  <ellipse cx="470" cy="440" rx="380" ry="170" fill="#57a636"/>
  <ellipse cx="120" cy="70" rx="52" ry="14" fill="#fff" opacity=".85"/>
  <ellipse cx="420" cy="46" rx="66" ry="16" fill="#fff" opacity=".8"/>
  <g transform="translate(130,84)">
    <rect x="0" y="0" width="300" height="176" rx="8" fill="#ece9d8" stroke="#0a49a5" stroke-width="4"/>
    <rect x="2" y="2" width="296" height="26" rx="6" fill="url(#tbar)"/>
    <circle cx="18" cy="15" r="6" fill="#f5c518"/>
    <text x="32" y="19" font-family="Tahoma,Verdana,sans-serif" font-size="12" font-weight="bold" fill="#fff">say my name.exe</text>
    <rect x="272" y="7" width="17" height="15" rx="3" fill="#e0402a"/>
    <text x="280" y="18" font-family="Tahoma,sans-serif" font-size="9" font-weight="bold" fill="#fff" text-anchor="middle">✕</text>
    <text x="150" y="76" font-family="Tahoma,Verdana,sans-serif" font-size="34" font-weight="bold" fill="#1a1a1a" text-anchor="middle">Gauravi</text>
    <text x="150" y="98" font-family="Tahoma,sans-serif" font-size="12" fill="#5a564a" text-anchor="middle">GOW · ra · vee</text>
    <rect x="86" y="118" width="128" height="30" rx="3" fill="#fdfdfb" stroke="#003c74"/>
    <text x="150" y="137" font-family="Tahoma,sans-serif" font-size="12" fill="#1a1a1a" text-anchor="middle">🔊 play</text>
  </g>
</svg>
